<mxfile host="Electron" agent="Mozilla/5.0 (Windows NT 10.0; Win64; x64) AppleWebKit/537.36 (KHTML, like Gecko) draw.io/24.7.17 Chrome/128.0.6613.36 Electron/32.0.1 Safari/537.36" version="24.7.17">
  <diagram name="Page-1" id="X1fKdzNJ7_C6b779opvF">
    <mxGraphModel dx="2345" dy="731" grid="1" gridSize="10" guides="1" tooltips="1" connect="1" arrows="1" fold="1" page="1" pageScale="1" pageWidth="827" pageHeight="1169" math="0" shadow="0">
      <root>
        <mxCell id="0" />
        <mxCell id="1" parent="0" />
        <mxCell id="rvn4LE7uELfoftUUIQKG-20" style="edgeStyle=orthogonalEdgeStyle;rounded=0;orthogonalLoop=1;jettySize=auto;html=1;exitX=0.5;exitY=1;exitDx=0;exitDy=0;" parent="1" source="rvn4LE7uELfoftUUIQKG-1" target="rvn4LE7uELfoftUUIQKG-4" edge="1">
          <mxGeometry relative="1" as="geometry" />
        </mxCell>
        <mxCell id="rvn4LE7uELfoftUUIQKG-1" value="Start" style="ellipse;whiteSpace=wrap;html=1;" parent="1" vertex="1">
          <mxGeometry x="-210" y="30" width="80" height="50" as="geometry" />
        </mxCell>
        <mxCell id="rvn4LE7uELfoftUUIQKG-12" style="edgeStyle=orthogonalEdgeStyle;rounded=0;orthogonalLoop=1;jettySize=auto;html=1;exitX=0.5;exitY=1;exitDx=0;exitDy=0;entryX=0.5;entryY=0;entryDx=0;entryDy=0;" parent="1" source="rvn4LE7uELfoftUUIQKG-2" target="rvn4LE7uELfoftUUIQKG-6" edge="1">
          <mxGeometry relative="1" as="geometry" />
        </mxCell>
        <mxCell id="rvn4LE7uELfoftUUIQKG-2" value="Hledej zažízení&lt;div&gt;k připojení&lt;/div&gt;" style="shape=parallelogram;perimeter=parallelogramPerimeter;whiteSpace=wrap;html=1;fixedSize=1;" parent="1" vertex="1">
          <mxGeometry x="-230" y="210" width="120" height="60" as="geometry" />
        </mxCell>
        <mxCell id="wpEJ-IihH82wH1X1R5QR-2" style="edgeStyle=orthogonalEdgeStyle;rounded=0;orthogonalLoop=1;jettySize=auto;html=1;exitX=0.5;exitY=1;exitDx=0;exitDy=0;entryX=0.5;entryY=0;entryDx=0;entryDy=0;" parent="1" source="rvn4LE7uELfoftUUIQKG-4" target="rvn4LE7uELfoftUUIQKG-2" edge="1">
          <mxGeometry relative="1" as="geometry" />
        </mxCell>
        <mxCell id="wpEJ-IihH82wH1X1R5QR-10" style="edgeStyle=orthogonalEdgeStyle;rounded=0;orthogonalLoop=1;jettySize=auto;html=1;exitX=1;exitY=0.5;exitDx=0;exitDy=0;entryX=0.5;entryY=0;entryDx=0;entryDy=0;" parent="1" source="rvn4LE7uELfoftUUIQKG-4" target="wpEJ-IihH82wH1X1R5QR-4" edge="1">
          <mxGeometry relative="1" as="geometry" />
        </mxCell>
        <mxCell id="wpEJ-IihH82wH1X1R5QR-16" style="edgeStyle=orthogonalEdgeStyle;rounded=0;orthogonalLoop=1;jettySize=auto;html=1;exitX=1;exitY=0.5;exitDx=0;exitDy=0;" parent="1" source="rvn4LE7uELfoftUUIQKG-4" target="wpEJ-IihH82wH1X1R5QR-9" edge="1">
          <mxGeometry relative="1" as="geometry" />
        </mxCell>
        <mxCell id="rvn4LE7uELfoftUUIQKG-4" value="donekonečna" style="rhombus;whiteSpace=wrap;html=1;" parent="1" vertex="1">
          <mxGeometry x="-210" y="110" width="80" height="80" as="geometry" />
        </mxCell>
        <mxCell id="rvn4LE7uELfoftUUIQKG-13" style="edgeStyle=orthogonalEdgeStyle;rounded=0;orthogonalLoop=1;jettySize=auto;html=1;exitX=0.5;exitY=1;exitDx=0;exitDy=0;entryX=0.5;entryY=0;entryDx=0;entryDy=0;" parent="1" source="rvn4LE7uELfoftUUIQKG-6" target="rvn4LE7uELfoftUUIQKG-8" edge="1">
          <mxGeometry relative="1" as="geometry" />
        </mxCell>
        <mxCell id="rvn4LE7uELfoftUUIQKG-14" style="edgeStyle=orthogonalEdgeStyle;rounded=0;orthogonalLoop=1;jettySize=auto;html=1;exitX=0;exitY=0.5;exitDx=0;exitDy=0;entryX=0;entryY=0.5;entryDx=0;entryDy=0;" parent="1" source="rvn4LE7uELfoftUUIQKG-6" target="rvn4LE7uELfoftUUIQKG-4" edge="1">
          <mxGeometry relative="1" as="geometry" />
        </mxCell>
        <mxCell id="rvn4LE7uELfoftUUIQKG-6" value="když někdo&lt;div&gt;přijme&lt;/div&gt;&lt;div&gt;spárování&lt;/div&gt;" style="rhombus;whiteSpace=wrap;html=1;" parent="1" vertex="1">
          <mxGeometry x="-220" y="300" width="100" height="100" as="geometry" />
        </mxCell>
        <mxCell id="rvn4LE7uELfoftUUIQKG-16" style="edgeStyle=orthogonalEdgeStyle;rounded=0;orthogonalLoop=1;jettySize=auto;html=1;exitX=0.5;exitY=1;exitDx=0;exitDy=0;entryX=0;entryY=0.5;entryDx=0;entryDy=0;" parent="1" source="rvn4LE7uELfoftUUIQKG-8" target="rvn4LE7uELfoftUUIQKG-4" edge="1">
          <mxGeometry relative="1" as="geometry">
            <Array as="points">
              <mxPoint x="-170" y="510" />
              <mxPoint x="-260" y="510" />
              <mxPoint x="-260" y="440" />
              <mxPoint x="-240" y="440" />
              <mxPoint x="-240" y="150" />
            </Array>
          </mxGeometry>
        </mxCell>
        <mxCell id="rvn4LE7uELfoftUUIQKG-8" value="pošli informace o lovu" style="shape=parallelogram;perimeter=parallelogramPerimeter;whiteSpace=wrap;html=1;fixedSize=1;" parent="1" vertex="1">
          <mxGeometry x="-245" y="430" width="150" height="60" as="geometry" />
        </mxCell>
        <mxCell id="rvn4LE7uELfoftUUIQKG-43" value="" style="edgeStyle=orthogonalEdgeStyle;rounded=0;orthogonalLoop=1;jettySize=auto;html=1;" parent="1" source="rvn4LE7uELfoftUUIQKG-22" target="rvn4LE7uELfoftUUIQKG-27" edge="1">
          <mxGeometry relative="1" as="geometry" />
        </mxCell>
        <mxCell id="rvn4LE7uELfoftUUIQKG-22" value="&lt;div&gt;checkpoint&lt;/div&gt;" style="ellipse;whiteSpace=wrap;html=1;" parent="1" vertex="1">
          <mxGeometry x="381" y="30" width="80" height="50" as="geometry" />
        </mxCell>
        <mxCell id="rvn4LE7uELfoftUUIQKG-24" style="edgeStyle=orthogonalEdgeStyle;rounded=0;orthogonalLoop=1;jettySize=auto;html=1;exitX=0.5;exitY=1;exitDx=0;exitDy=0;entryX=0.5;entryY=0;entryDx=0;entryDy=0;" parent="1" source="rvn4LE7uELfoftUUIQKG-25" target="rvn4LE7uELfoftUUIQKG-30" edge="1">
          <mxGeometry relative="1" as="geometry" />
        </mxCell>
        <mxCell id="rvn4LE7uELfoftUUIQKG-25" value="Hledej zažízení&lt;div&gt;k připojení&lt;/div&gt;" style="shape=parallelogram;perimeter=parallelogramPerimeter;whiteSpace=wrap;html=1;fixedSize=1;" parent="1" vertex="1">
          <mxGeometry x="361" y="230" width="120" height="60" as="geometry" />
        </mxCell>
        <mxCell id="rvn4LE7uELfoftUUIQKG-26" style="edgeStyle=orthogonalEdgeStyle;rounded=0;orthogonalLoop=1;jettySize=auto;html=1;exitX=0.5;exitY=1;exitDx=0;exitDy=0;entryX=0.5;entryY=0;entryDx=0;entryDy=0;" parent="1" source="rvn4LE7uELfoftUUIQKG-27" target="rvn4LE7uELfoftUUIQKG-25" edge="1">
          <mxGeometry relative="1" as="geometry" />
        </mxCell>
        <mxCell id="rvn4LE7uELfoftUUIQKG-27" value="donekonečna&lt;div&gt;ale pomaleji&lt;/div&gt;" style="rhombus;whiteSpace=wrap;html=1;" parent="1" vertex="1">
          <mxGeometry x="376.5" y="120" width="89" height="90" as="geometry" />
        </mxCell>
        <mxCell id="rvn4LE7uELfoftUUIQKG-28" style="edgeStyle=orthogonalEdgeStyle;rounded=0;orthogonalLoop=1;jettySize=auto;html=1;exitX=0.5;exitY=1;exitDx=0;exitDy=0;entryX=0.5;entryY=0;entryDx=0;entryDy=0;" parent="1" source="rvn4LE7uELfoftUUIQKG-30" target="rvn4LE7uELfoftUUIQKG-32" edge="1">
          <mxGeometry relative="1" as="geometry" />
        </mxCell>
        <mxCell id="rvn4LE7uELfoftUUIQKG-29" style="edgeStyle=orthogonalEdgeStyle;rounded=0;orthogonalLoop=1;jettySize=auto;html=1;exitX=0;exitY=0.5;exitDx=0;exitDy=0;entryX=0;entryY=0.5;entryDx=0;entryDy=0;" parent="1" source="rvn4LE7uELfoftUUIQKG-30" target="rvn4LE7uELfoftUUIQKG-27" edge="1">
          <mxGeometry relative="1" as="geometry" />
        </mxCell>
        <mxCell id="rvn4LE7uELfoftUUIQKG-30" value="když někdo&lt;div&gt;přijme&lt;/div&gt;&lt;div&gt;spárování&lt;/div&gt;" style="rhombus;whiteSpace=wrap;html=1;" parent="1" vertex="1">
          <mxGeometry x="371" y="320" width="100" height="100" as="geometry" />
        </mxCell>
        <mxCell id="rvn4LE7uELfoftUUIQKG-31" style="edgeStyle=orthogonalEdgeStyle;rounded=0;orthogonalLoop=1;jettySize=auto;html=1;exitX=0.5;exitY=1;exitDx=0;exitDy=0;entryX=0;entryY=0.5;entryDx=0;entryDy=0;" parent="1" source="rvn4LE7uELfoftUUIQKG-32" target="rvn4LE7uELfoftUUIQKG-27" edge="1">
          <mxGeometry relative="1" as="geometry">
            <Array as="points">
              <mxPoint x="421" y="530" />
              <mxPoint x="331" y="530" />
              <mxPoint x="331" y="460" />
              <mxPoint x="351" y="460" />
              <mxPoint x="351" y="165" />
            </Array>
          </mxGeometry>
        </mxCell>
        <mxCell id="rvn4LE7uELfoftUUIQKG-32" value="pošli info k potvrzení checkpointu" style="shape=parallelogram;perimeter=parallelogramPerimeter;whiteSpace=wrap;html=1;fixedSize=1;" parent="1" vertex="1">
          <mxGeometry x="346" y="450" width="150" height="60" as="geometry" />
        </mxCell>
        <mxCell id="rvn4LE7uELfoftUUIQKG-44" value="" style="edgeStyle=orthogonalEdgeStyle;rounded=0;orthogonalLoop=1;jettySize=auto;html=1;" parent="1" source="rvn4LE7uELfoftUUIQKG-33" target="rvn4LE7uELfoftUUIQKG-37" edge="1">
          <mxGeometry relative="1" as="geometry" />
        </mxCell>
        <mxCell id="rvn4LE7uELfoftUUIQKG-33" value="&lt;div&gt;konec&lt;/div&gt;" style="ellipse;whiteSpace=wrap;html=1;" parent="1" vertex="1">
          <mxGeometry x="712" y="30" width="80" height="50" as="geometry" />
        </mxCell>
        <mxCell id="rvn4LE7uELfoftUUIQKG-34" style="edgeStyle=orthogonalEdgeStyle;rounded=0;orthogonalLoop=1;jettySize=auto;html=1;exitX=0.5;exitY=1;exitDx=0;exitDy=0;entryX=0.5;entryY=0;entryDx=0;entryDy=0;" parent="1" source="rvn4LE7uELfoftUUIQKG-35" target="rvn4LE7uELfoftUUIQKG-40" edge="1">
          <mxGeometry relative="1" as="geometry" />
        </mxCell>
        <mxCell id="rvn4LE7uELfoftUUIQKG-35" value="Hledej zažízení&lt;div&gt;k připojení&lt;/div&gt;" style="shape=parallelogram;perimeter=parallelogramPerimeter;whiteSpace=wrap;html=1;fixedSize=1;" parent="1" vertex="1">
          <mxGeometry x="692" y="230" width="120" height="60" as="geometry" />
        </mxCell>
        <mxCell id="rvn4LE7uELfoftUUIQKG-36" style="edgeStyle=orthogonalEdgeStyle;rounded=0;orthogonalLoop=1;jettySize=auto;html=1;exitX=0.5;exitY=1;exitDx=0;exitDy=0;entryX=0.5;entryY=0;entryDx=0;entryDy=0;" parent="1" source="rvn4LE7uELfoftUUIQKG-37" target="rvn4LE7uELfoftUUIQKG-35" edge="1">
          <mxGeometry relative="1" as="geometry" />
        </mxCell>
        <mxCell id="rvn4LE7uELfoftUUIQKG-37" value="donekonečna" style="rhombus;whiteSpace=wrap;html=1;" parent="1" vertex="1">
          <mxGeometry x="707.5" y="120" width="89" height="90" as="geometry" />
        </mxCell>
        <mxCell id="rvn4LE7uELfoftUUIQKG-38" style="edgeStyle=orthogonalEdgeStyle;rounded=0;orthogonalLoop=1;jettySize=auto;html=1;exitX=0.5;exitY=1;exitDx=0;exitDy=0;entryX=0.5;entryY=0;entryDx=0;entryDy=0;" parent="1" source="rvn4LE7uELfoftUUIQKG-40" target="rvn4LE7uELfoftUUIQKG-42" edge="1">
          <mxGeometry relative="1" as="geometry" />
        </mxCell>
        <mxCell id="rvn4LE7uELfoftUUIQKG-39" style="edgeStyle=orthogonalEdgeStyle;rounded=0;orthogonalLoop=1;jettySize=auto;html=1;exitX=0;exitY=0.5;exitDx=0;exitDy=0;entryX=0;entryY=0.5;entryDx=0;entryDy=0;" parent="1" source="rvn4LE7uELfoftUUIQKG-40" target="rvn4LE7uELfoftUUIQKG-37" edge="1">
          <mxGeometry relative="1" as="geometry" />
        </mxCell>
        <mxCell id="rvn4LE7uELfoftUUIQKG-40" value="když někdo&lt;div&gt;přijme&lt;/div&gt;&lt;div&gt;spárování&lt;/div&gt;" style="rhombus;whiteSpace=wrap;html=1;" parent="1" vertex="1">
          <mxGeometry x="702" y="320" width="100" height="100" as="geometry" />
        </mxCell>
        <mxCell id="rvn4LE7uELfoftUUIQKG-50" style="edgeStyle=orthogonalEdgeStyle;rounded=0;orthogonalLoop=1;jettySize=auto;html=1;exitX=0.5;exitY=1;exitDx=0;exitDy=0;entryX=0.5;entryY=0;entryDx=0;entryDy=0;" parent="1" source="rvn4LE7uELfoftUUIQKG-42" target="rvn4LE7uELfoftUUIQKG-49" edge="1">
          <mxGeometry relative="1" as="geometry" />
        </mxCell>
        <mxCell id="rvn4LE7uELfoftUUIQKG-42" value="získej info k potvrzení" style="shape=parallelogram;perimeter=parallelogramPerimeter;whiteSpace=wrap;html=1;fixedSize=1;" parent="1" vertex="1">
          <mxGeometry x="677" y="450" width="150" height="60" as="geometry" />
        </mxCell>
        <mxCell id="rvn4LE7uELfoftUUIQKG-53" style="edgeStyle=orthogonalEdgeStyle;rounded=0;orthogonalLoop=1;jettySize=auto;html=1;exitX=0.5;exitY=1;exitDx=0;exitDy=0;entryX=0.5;entryY=0;entryDx=0;entryDy=0;" parent="1" source="rvn4LE7uELfoftUUIQKG-46" target="rvn4LE7uELfoftUUIQKG-47" edge="1">
          <mxGeometry relative="1" as="geometry" />
        </mxCell>
        <mxCell id="rvn4LE7uELfoftUUIQKG-46" value="otevři dvířka s odměnou" style="rounded=0;whiteSpace=wrap;html=1;" parent="1" vertex="1">
          <mxGeometry x="840" y="600" width="120" height="60" as="geometry" />
        </mxCell>
        <mxCell id="rvn4LE7uELfoftUUIQKG-55" style="edgeStyle=orthogonalEdgeStyle;rounded=0;orthogonalLoop=1;jettySize=auto;html=1;exitX=0.5;exitY=1;exitDx=0;exitDy=0;entryX=0;entryY=0.5;entryDx=0;entryDy=0;" parent="1" source="rvn4LE7uELfoftUUIQKG-47" target="rvn4LE7uELfoftUUIQKG-37" edge="1">
          <mxGeometry relative="1" as="geometry">
            <Array as="points">
              <mxPoint x="900" y="760" />
              <mxPoint x="740" y="760" />
              <mxPoint x="740" y="720" />
              <mxPoint x="660" y="720" />
              <mxPoint x="660" y="370" />
              <mxPoint x="680" y="370" />
              <mxPoint x="680" y="165" />
            </Array>
          </mxGeometry>
        </mxCell>
        <mxCell id="rvn4LE7uELfoftUUIQKG-47" value="pošli info o splnění lovu" style="shape=parallelogram;perimeter=parallelogramPerimeter;whiteSpace=wrap;html=1;fixedSize=1;" parent="1" vertex="1">
          <mxGeometry x="840" y="680" width="120" height="60" as="geometry" />
        </mxCell>
        <mxCell id="rvn4LE7uELfoftUUIQKG-54" style="edgeStyle=orthogonalEdgeStyle;rounded=0;orthogonalLoop=1;jettySize=auto;html=1;exitX=0.5;exitY=1;exitDx=0;exitDy=0;entryX=0;entryY=0.5;entryDx=0;entryDy=0;" parent="1" source="rvn4LE7uELfoftUUIQKG-48" target="rvn4LE7uELfoftUUIQKG-37" edge="1">
          <mxGeometry relative="1" as="geometry">
            <Array as="points">
              <mxPoint x="752" y="720" />
              <mxPoint x="660" y="720" />
              <mxPoint x="660" y="370" />
              <mxPoint x="680" y="370" />
              <mxPoint x="680" y="165" />
            </Array>
          </mxGeometry>
        </mxCell>
        <mxCell id="rvn4LE7uELfoftUUIQKG-48" value="pošli&amp;nbsp; že lov&lt;div&gt;není splněn&lt;/div&gt;" style="shape=parallelogram;perimeter=parallelogramPerimeter;whiteSpace=wrap;html=1;fixedSize=1;" parent="1" vertex="1">
          <mxGeometry x="692" y="640" width="120" height="60" as="geometry" />
        </mxCell>
        <mxCell id="rvn4LE7uELfoftUUIQKG-51" style="edgeStyle=orthogonalEdgeStyle;rounded=0;orthogonalLoop=1;jettySize=auto;html=1;exitX=1;exitY=0.5;exitDx=0;exitDy=0;entryX=0.5;entryY=0;entryDx=0;entryDy=0;" parent="1" source="rvn4LE7uELfoftUUIQKG-49" target="rvn4LE7uELfoftUUIQKG-46" edge="1">
          <mxGeometry relative="1" as="geometry" />
        </mxCell>
        <mxCell id="rvn4LE7uELfoftUUIQKG-52" style="edgeStyle=orthogonalEdgeStyle;rounded=0;orthogonalLoop=1;jettySize=auto;html=1;exitX=0.5;exitY=1;exitDx=0;exitDy=0;entryX=0.5;entryY=0;entryDx=0;entryDy=0;" parent="1" source="rvn4LE7uELfoftUUIQKG-49" target="rvn4LE7uELfoftUUIQKG-48" edge="1">
          <mxGeometry relative="1" as="geometry" />
        </mxCell>
        <mxCell id="rvn4LE7uELfoftUUIQKG-49" value="potvrď info splněného&lt;div&gt;lovu&lt;/div&gt;" style="rhombus;whiteSpace=wrap;html=1;" parent="1" vertex="1">
          <mxGeometry x="698" y="530" width="108" height="80" as="geometry" />
        </mxCell>
        <mxCell id="wpEJ-IihH82wH1X1R5QR-12" style="edgeStyle=orthogonalEdgeStyle;rounded=0;orthogonalLoop=1;jettySize=auto;html=1;exitX=1;exitY=0.5;exitDx=0;exitDy=0;entryX=0.5;entryY=0;entryDx=0;entryDy=0;" parent="1" source="wpEJ-IihH82wH1X1R5QR-4" target="wpEJ-IihH82wH1X1R5QR-6" edge="1">
          <mxGeometry relative="1" as="geometry" />
        </mxCell>
        <mxCell id="wpEJ-IihH82wH1X1R5QR-4" value="zapnut mód přípravy lovu" style="rhombus;whiteSpace=wrap;html=1;" parent="1" vertex="1">
          <mxGeometry x="-50" y="200" width="80" height="80" as="geometry" />
        </mxCell>
        <mxCell id="wpEJ-IihH82wH1X1R5QR-14" style="edgeStyle=orthogonalEdgeStyle;rounded=0;orthogonalLoop=1;jettySize=auto;html=1;exitX=0.5;exitY=1;exitDx=0;exitDy=0;entryX=0.5;entryY=0;entryDx=0;entryDy=0;" parent="1" source="wpEJ-IihH82wH1X1R5QR-5" target="wpEJ-IihH82wH1X1R5QR-7" edge="1">
          <mxGeometry relative="1" as="geometry" />
        </mxCell>
        <mxCell id="wpEJ-IihH82wH1X1R5QR-5" value="připojeno k bodu" style="shape=parallelogram;perimeter=parallelogramPerimeter;whiteSpace=wrap;html=1;fixedSize=1;" parent="1" vertex="1">
          <mxGeometry x="40" y="380" width="120" height="60" as="geometry" />
        </mxCell>
        <mxCell id="wpEJ-IihH82wH1X1R5QR-13" style="edgeStyle=orthogonalEdgeStyle;rounded=0;orthogonalLoop=1;jettySize=auto;html=1;exitX=0.5;exitY=1;exitDx=0;exitDy=0;entryX=0.5;entryY=0;entryDx=0;entryDy=0;" parent="1" source="wpEJ-IihH82wH1X1R5QR-6" target="wpEJ-IihH82wH1X1R5QR-5" edge="1">
          <mxGeometry relative="1" as="geometry" />
        </mxCell>
        <mxCell id="wpEJ-IihH82wH1X1R5QR-6" value="zmáčknuto tlačítko přidání bodu" style="rhombus;whiteSpace=wrap;html=1;" parent="1" vertex="1">
          <mxGeometry x="60" y="270" width="80" height="80" as="geometry" />
        </mxCell>
        <mxCell id="wpEJ-IihH82wH1X1R5QR-15" style="edgeStyle=orthogonalEdgeStyle;rounded=0;orthogonalLoop=1;jettySize=auto;html=1;exitX=0.5;exitY=1;exitDx=0;exitDy=0;entryX=0.5;entryY=0;entryDx=0;entryDy=0;" parent="1" source="wpEJ-IihH82wH1X1R5QR-7" target="wpEJ-IihH82wH1X1R5QR-8" edge="1">
          <mxGeometry relative="1" as="geometry" />
        </mxCell>
        <mxCell id="wpEJ-IihH82wH1X1R5QR-7" value="získána gps&lt;div&gt;lokace&lt;/div&gt;" style="shape=parallelogram;perimeter=parallelogramPerimeter;whiteSpace=wrap;html=1;fixedSize=1;" parent="1" vertex="1">
          <mxGeometry x="30" y="460" width="120" height="60" as="geometry" />
        </mxCell>
        <mxCell id="wpEJ-IihH82wH1X1R5QR-22" style="edgeStyle=orthogonalEdgeStyle;rounded=0;orthogonalLoop=1;jettySize=auto;html=1;exitX=0.5;exitY=1;exitDx=0;exitDy=0;entryX=0;entryY=0.5;entryDx=0;entryDy=0;" parent="1" source="wpEJ-IihH82wH1X1R5QR-8" target="rvn4LE7uELfoftUUIQKG-4" edge="1">
          <mxGeometry relative="1" as="geometry">
            <Array as="points">
              <mxPoint x="90" y="620" />
              <mxPoint x="-260" y="620" />
              <mxPoint x="-260" y="440" />
              <mxPoint x="-240" y="440" />
              <mxPoint x="-240" y="150" />
            </Array>
          </mxGeometry>
        </mxCell>
        <mxCell id="wpEJ-IihH82wH1X1R5QR-8" value="hodnoty zapsány" style="rounded=0;whiteSpace=wrap;html=1;" parent="1" vertex="1">
          <mxGeometry x="30" y="540" width="120" height="60" as="geometry" />
        </mxCell>
        <mxCell id="wpEJ-IihH82wH1X1R5QR-19" style="edgeStyle=orthogonalEdgeStyle;rounded=0;orthogonalLoop=1;jettySize=auto;html=1;exitX=0.5;exitY=1;exitDx=0;exitDy=0;entryX=0.5;entryY=0;entryDx=0;entryDy=0;" parent="1" source="wpEJ-IihH82wH1X1R5QR-9" target="wpEJ-IihH82wH1X1R5QR-18" edge="1">
          <mxGeometry relative="1" as="geometry" />
        </mxCell>
        <mxCell id="wpEJ-IihH82wH1X1R5QR-9" value="mód&lt;div&gt;přípravy ukončen&lt;/div&gt;" style="rhombus;whiteSpace=wrap;html=1;" parent="1" vertex="1">
          <mxGeometry x="210" y="200" width="80" height="80" as="geometry" />
        </mxCell>
        <mxCell id="wpEJ-IihH82wH1X1R5QR-21" style="edgeStyle=orthogonalEdgeStyle;rounded=0;orthogonalLoop=1;jettySize=auto;html=1;exitX=0.5;exitY=1;exitDx=0;exitDy=0;entryX=0;entryY=0.5;entryDx=0;entryDy=0;" parent="1" source="wpEJ-IihH82wH1X1R5QR-17" target="rvn4LE7uELfoftUUIQKG-4" edge="1">
          <mxGeometry relative="1" as="geometry">
            <Array as="points">
              <mxPoint x="250" y="620" />
              <mxPoint x="-260" y="620" />
              <mxPoint x="-260" y="440" />
              <mxPoint x="-240" y="440" />
              <mxPoint x="-240" y="150" />
            </Array>
          </mxGeometry>
        </mxCell>
        <mxCell id="wpEJ-IihH82wH1X1R5QR-17" value="potřebné hodnoty odeslány na&lt;div&gt;koncový bod&lt;/div&gt;" style="shape=parallelogram;perimeter=parallelogramPerimeter;whiteSpace=wrap;html=1;fixedSize=1;" parent="1" vertex="1">
          <mxGeometry x="190" y="380" width="120" height="60" as="geometry" />
        </mxCell>
        <mxCell id="wpEJ-IihH82wH1X1R5QR-20" style="edgeStyle=orthogonalEdgeStyle;rounded=0;orthogonalLoop=1;jettySize=auto;html=1;exitX=0.5;exitY=1;exitDx=0;exitDy=0;entryX=0.5;entryY=0;entryDx=0;entryDy=0;" parent="1" source="wpEJ-IihH82wH1X1R5QR-18" target="wpEJ-IihH82wH1X1R5QR-17" edge="1">
          <mxGeometry relative="1" as="geometry" />
        </mxCell>
        <mxCell id="wpEJ-IihH82wH1X1R5QR-18" value="připojeno k koncovému bodu" style="shape=parallelogram;perimeter=parallelogramPerimeter;whiteSpace=wrap;html=1;fixedSize=1;" parent="1" vertex="1">
          <mxGeometry x="190" y="300" width="120" height="60" as="geometry" />
        </mxCell>
        <mxCell id="Evz5vJ_2obNAGlg3wRVu-4" value="" style="edgeStyle=orthogonalEdgeStyle;rounded=0;orthogonalLoop=1;jettySize=auto;html=1;" edge="1" parent="1" source="Evz5vJ_2obNAGlg3wRVu-1" target="Evz5vJ_2obNAGlg3wRVu-2">
          <mxGeometry relative="1" as="geometry" />
        </mxCell>
        <mxCell id="Evz5vJ_2obNAGlg3wRVu-1" value="&lt;div&gt;checkpoint&lt;/div&gt;" style="ellipse;whiteSpace=wrap;html=1;" vertex="1" parent="1">
          <mxGeometry x="1190" y="30" width="80" height="50" as="geometry" />
        </mxCell>
        <mxCell id="Evz5vJ_2obNAGlg3wRVu-5" value="" style="edgeStyle=orthogonalEdgeStyle;rounded=0;orthogonalLoop=1;jettySize=auto;html=1;" edge="1" parent="1" source="Evz5vJ_2obNAGlg3wRVu-2" target="Evz5vJ_2obNAGlg3wRVu-3">
          <mxGeometry relative="1" as="geometry" />
        </mxCell>
        <mxCell id="Evz5vJ_2obNAGlg3wRVu-2" value="donekonečna&lt;div&gt;ale pomaleji&lt;/div&gt;" style="rhombus;whiteSpace=wrap;html=1;" vertex="1" parent="1">
          <mxGeometry x="1185.5" y="110" width="89" height="90" as="geometry" />
        </mxCell>
        <mxCell id="Evz5vJ_2obNAGlg3wRVu-6" style="edgeStyle=orthogonalEdgeStyle;rounded=0;orthogonalLoop=1;jettySize=auto;html=1;exitX=0;exitY=0.5;exitDx=0;exitDy=0;entryX=0;entryY=0.5;entryDx=0;entryDy=0;" edge="1" parent="1" source="Evz5vJ_2obNAGlg3wRVu-3" target="Evz5vJ_2obNAGlg3wRVu-2">
          <mxGeometry relative="1" as="geometry">
            <Array as="points">
              <mxPoint x="1150" y="260" />
              <mxPoint x="1150" y="155" />
            </Array>
          </mxGeometry>
        </mxCell>
        <mxCell id="Evz5vJ_2obNAGlg3wRVu-3" value="vysílej svůj id + validační hash" style="shape=parallelogram;perimeter=parallelogramPerimeter;whiteSpace=wrap;html=1;fixedSize=1;" vertex="1" parent="1">
          <mxGeometry x="1170" y="230" width="120" height="60" as="geometry" />
        </mxCell>
      </root>
    </mxGraphModel>
  </diagram>
</mxfile>
